<?xml version="1.0" standalone="no"?>
<!DOCTYPE svg PUBLIC "-//W3C//DTD SVG 20010904//EN"
 "http://www.w3.org/TR/2001/REC-SVG-20010904/DTD/svg10.dtd">
<svg version="1.0" xmlns="http://www.w3.org/2000/svg"
 width="512.000000pt" height="512.000000pt" viewBox="0 0 512.000000 512.000000"
 preserveAspectRatio="xMidYMid meet">
<metadata>
Created by potrace 1.11, written by Peter Selinger 2001-2013
</metadata>
<g transform="translate(0.000000,512.000000) scale(0.100000,-0.100000)"
fill="#000000" stroke="none">
<path d="M2468 5107 c-26 -8 -82 -34 -125 -59 -43 -24 -487 -281 -988 -569
-572 -330 -924 -538 -947 -561 -21 -21 -52 -66 -70 -100 l-33 -63 0 -1190 0
-1190 33 -67 c57 -116 -68 -38 1712 -1063 184 -106 351 -201 370 -211 50 -25
194 -31 258 -10 27 8 161 80 298 159 137 79 501 289 809 466 875 505 900 519
943 562 21 22 52 66 68 97 l29 57 0 1200 0 1200 -28 54 c-46 87 -107 137 -297
245 -193 110 -1220 701 -1533 883 -109 63 -223 126 -254 140 -68 31 -174 40
-245 20z m420 -676 c47 -24 72 -67 72 -123 0 -37 -11 -60 -76 -161 -166 -259
-253 -445 -297 -630 -18 -77 -21 -122 -21 -277 0 -162 3 -200 27 -310 14 -69
33 -148 42 -176 l15 -51 84 13 c370 59 628 184 844 408 96 100 153 174 282
364 92 136 116 159 171 168 80 13 149 -51 149 -138 0 -42 -9 -60 -98 -195
-348 -525 -674 -758 -1202 -860 -74 -15 -136 -28 -138 -29 -2 -1 8 -49 22
-106 86 -354 80 -657 -19 -954 -39 -117 -151 -339 -255 -504 -105 -167 -120
-185 -167 -201 -95 -31 -198 56 -180 151 4 15 51 99 105 186 204 326 278 523
298 789 10 140 -18 356 -68 533 -25 86 -18 85 -203 47 -310 -63 -539 -180
-735 -375 -84 -84 -213 -252 -313 -407 -36 -56 -77 -109 -91 -118 -91 -60
-211 6 -211 114 0 44 8 60 89 182 255 384 450 575 730 716 140 70 304 125 481
160 77 15 141 28 142 28 1 0 -7 34 -17 75 -128 487 -77 897 165 1320 206 362
264 417 373 361z m65 -362 c12 -6 203 -129 425 -272 276 -178 406 -267 413
-284 18 -47 -26 -100 -75 -91 -26 6 -814 513 -838 540 -38 43 -13 101 50 117
2 1 13 -4 25 -10z m232 -534 c198 -128 368 -244 378 -257 37 -49 -18 -121 -75
-99 -47 19 -733 468 -751 493 -15 21 -17 32 -10 54 11 33 49 56 78 48 11 -4
182 -111 380 -239z m-185 -268 c146 -93 275 -179 288 -190 43 -40 15 -117 -44
-117 -16 0 -127 66 -304 180 -153 99 -282 186 -288 193 -26 32 -24 57 7 88 24
23 36 29 53 24 13 -4 142 -84 288 -178z m-170 -259 c110 -71 140 -100 140
-134 0 -31 -33 -64 -66 -64 -24 0 -192 100 -241 144 -27 23 -30 71 -6 98 29
33 70 22 173 -44z m-499 -774 c57 -36 112 -75 122 -86 23 -27 22 -63 -3 -88
-35 -35 -70 -25 -187 51 -59 40 -111 77 -115 83 -16 24 -8 75 14 90 37 26 60
19 169 -50z m-165 -264 c153 -99 286 -191 294 -204 18 -32 5 -76 -30 -93 -34
-17 -48 -10 -350 186 -268 173 -295 196 -282 243 6 24 40 48 68 48 11 0 146
-81 300 -180z m-505 -63 c96 -58 683 -439 702 -455 36 -31 16 -97 -35 -115 -9
-3 -36 4 -60 17 -74 40 -712 456 -725 474 -28 35 -9 88 37 105 24 9 23 9 81
-26z m-248 -229 c76 -40 787 -506 810 -530 30 -32 31 -67 2 -97 -34 -35 -64
-19 -471 244 -219 142 -409 267 -421 278 -32 28 -30 70 3 96 30 24 46 26 77 9z"/>
</g>
</svg>
